<?xml version="1.0" encoding="UTF-8"?>
<svg id="_レイヤー_1" data-name="レイヤー_1" xmlns="http://www.w3.org/2000/svg" version="1.1" viewBox="0 0 225 450">
  <!-- Generator: Adobe Illustrator 30.0.0, SVG Export Plug-In . SVG Version: 2.1.1 Build 123)  -->
  <defs>
    <style>
      .st0 {
        fill: none;
        stroke: #9e6341;
        stroke-miterlimit: 10;
      }
    </style>
  </defs>
  <g>
    <path class="st0" d="M147.12,140.43c9.73-4.36,19.73-8.84,30.87-16.91,2.57-1.86,2.54-5.69-.03-7.55-11.13-8.1-30.5-6.74-47.33,4.33-14.8,9.73-23.48,24.22-23.32,36.71.05,4.08,5.05,6.03,7.94,3.15,9.94-9.9,20.66-14.7,31.87-19.72Z"/>
    <path class="st0" d="M176.73,131.84c-9.83,6.46-18.87,10.51-27.1,14.2-12.5,5.6-23.49,10.52-33.57,22.26-1.84,2.14-1.38,5.39.97,6.94,11.24,7.45,30.08,5.9,46.5-4.9,14.75-9.7,23.43-24.14,23.32-36.6-.03-3.67-4.17-5.82-7.24-3.8l-2.88,1.89Z"/>
  </g>
  <g>
    <path class="st0" d="M89.43,235.62c8.63,6.26,17.51,12.69,30.06,18.31,2.9,1.3,6.19-.64,6.53-3.8,1.46-13.68-9.38-29.79-27.37-38.86-15.81-7.97-32.71-8.26-43.45-1.89-3.51,2.08-2.71,7.39,1.23,8.45,13.54,3.68,23.05,10.57,32.99,17.78Z"/>
    <path class="st0" d="M111.65,257c-10.5-5.29-18.52-11.11-25.83-16.4-11.09-8.04-20.84-15.1-36.04-17.99-2.77-.52-5.36,1.49-5.53,4.31-.85,13.46,9.9,29.01,27.45,37.86,15.76,7.95,32.61,8.26,43.35,1.95,3.17-1.86,2.96-6.52-.32-8.17l-3.08-1.55Z"/>
  </g>
  <g>
    <path class="st0" d="M178.51,33.89c8.63,6.26,17.51,12.69,30.06,18.31,2.9,1.3,6.19-.64,6.53-3.8,1.46-13.68-9.38-29.79-27.37-38.86-15.81-7.97-32.71-8.26-43.45-1.89-3.51,2.08-2.71,7.39,1.23,8.45,13.54,3.68,23.05,10.57,32.99,17.78Z"/>
    <path class="st0" d="M200.73,55.27c-10.5-5.29-18.52-11.11-25.83-16.4-11.09-8.04-20.84-15.1-36.04-17.99-2.77-.52-5.36,1.49-5.53,4.31-.85,13.46,9.9,29.01,27.45,37.86,15.76,7.95,32.61,8.26,43.35,1.95,3.17-1.86,2.96-6.52-.32-8.17l-3.08-1.55Z"/>
  </g>
  <g>
    <path class="st0" d="M115.8,412.54c9.71,4.39,19.7,8.9,33.13,11.88,3.1.69,5.94-1.87,5.63-5.03-1.32-13.7-15.19-27.29-34.63-32.55-17.09-4.62-33.7-1.5-42.94,6.9-3.02,2.75-1.16,7.78,2.91,8.03,14,.87,24.71,5.71,35.9,10.77Z"/>
    <path class="st0" d="M141.87,429.01c-11.36-3.07-20.38-7.15-28.6-10.86-12.48-5.64-23.45-10.6-38.93-10.35-2.82.04-4.95,2.54-4.55,5.33,1.88,13.36,15.54,26.42,34.51,31.55,17.04,4.61,33.61,1.52,42.86-6.83,2.73-2.46,1.59-6.98-1.96-7.94l-3.33-.9Z"/>
  </g>
  <g>
    <path class="st0" d="M167.04,316.8c10.66.16,21.62.33,35.12-2.29,3.12-.6,4.7-4.08,3.16-6.86-6.66-12.04-24.79-19-44.73-16.08-17.52,2.56-31.52,12.03-36.64,23.42-1.67,3.72,2.03,7.6,5.86,6.21,13.19-4.77,24.94-4.59,37.22-4.4Z"/>
    <path class="st0" d="M197.52,321.53c-11.64,1.7-21.54,1.55-30.57,1.41-13.69-.21-25.73-.39-39.84,5.99-2.57,1.16-3.53,4.3-2.06,6.7,7.04,11.5,24.77,18.06,44.22,15.21,17.47-2.56,31.44-11.98,36.6-23.32,1.52-3.34-1.32-7.04-4.95-6.5l-3.41.5Z"/>
  </g>
  <g>
    <path class="st0" d="M53.26,77.67c10.66.16,21.62.33,35.12-2.29,3.12-.6,4.7-4.08,3.16-6.86-6.66-12.04-24.79-19-44.73-16.08-17.52,2.56-31.52,12.03-36.64,23.42-1.67,3.72,2.03,7.6,5.86,6.21,13.19-4.77,24.94-4.59,37.22-4.4Z"/>
    <path class="st0" d="M83.73,82.4c-11.64,1.7-21.54,1.55-30.57,1.41-13.69-.21-25.73-.39-39.84,5.99-2.57,1.16-3.53,4.3-2.06,6.7,7.04,11.5,24.77,18.06,44.22,15.21,17.47-2.56,31.44-11.98,36.6-23.32,1.52-3.34-1.32-7.04-4.95-6.5l-3.41.5Z"/>
  </g>
</svg>